<svg id="artwork" xmlns="http://www.w3.org/2000/svg" viewBox="0 0 1280.32 677.87"><defs><style>.cls-1{fill:#004976;}</style></defs><path class="cls-1" d="M281.24,276V381.8c0,56.49-12.82,81.33-49.67,81.33-28.45,0-42.47-18.83-48.88-33.25V539.25H142.62V198.71h40.07V228c6.41-14.42,20.43-33.25,48.88-33.25C268.42,194.71,281.24,219.55,281.24,276Zm-40.06-6c0-25.24-7.21-39.27-27.24-39.27-22,0-31.25,18-31.25,41.27V385.81c0,23.24,9.21,41.27,31.25,41.27,20,0,27.24-14,27.24-39.27Z"/><path class="cls-1" d="M449.91,274v12H409.85V268c0-22.83-3.2-37.26-21.63-37.26-20,0-32.86,25.24-32.86,48.08V459.13H315.3V198.71h40.06v32c7.22-16,22-36,51.29-36C442.7,194.71,449.91,221.55,449.91,274Z"/><path class="cls-1" d="M616.58,288.05v46.88H518v40.86c0,41.27,10.82,51.29,30.05,51.29s28.45-10,28.45-51.29V357h40.06v12.82c0,64.51-20,93.35-68.51,93.35S478,434.29,478,369.78V288.05c0-64.5,21.63-93.34,70.11-93.34S616.58,223.55,616.58,288.05Zm-68.51-57.29c-19.23,0-30.05,10-30.05,51.28v24.85h58.5V282C576.52,240.78,566.9,230.76,548.07,230.76Z"/><path class="cls-1" d="M789.26,276V459.13H749.19V270c0-25.24-7.21-39.27-27.24-39.27-22,0-31.25,18-31.25,41.27v187.1H650.64V198.71H690.7V228c6.41-14.42,20.43-33.25,48.88-33.25C776.44,194.71,789.26,219.55,789.26,276Z"/><path class="cls-1" d="M965.94,459.13H929.88c-6-6-8-22-8-29.25-6.41,14.42-20.43,33.25-48.88,33.25-36.85,0-49.67-24.84-49.67-81.33V276c0-56.49,12.82-81.33,49.67-81.33,28.45,0,42.47,18.83,48.88,33.25V138.62h40.06v282C961.93,437.49,961.93,446.31,965.94,459.13ZM921.87,272c0-23.24-9.21-41.27-31.25-41.27-20,0-27.24,14-27.24,39.27V387.81c0,25.24,7.21,39.27,27.24,39.27,22,0,31.25-18,31.25-41.27Z"/><path class="cls-1" d="M1142.62,459.13h-36c-6-8-8-22-8-29.25-9.62,22.44-25.64,33.25-49.68,33.25-30.05,0-52.89-21.23-52.89-65.7,0-90.54,102.57-83.33,102.57-133.81,0-22.84-9.22-32.86-26.85-32.86-19.23,0-29.24,12-29.24,41.27v10H1002.4v-6c0-48.48,16.43-81.33,69.31-81.33,51.69,0,66.91,32.85,66.91,77.32v149C1138.62,435.09,1138.62,443.5,1142.62,459.13ZM1098.56,314.9c-10.42,22.43-62.5,33.25-62.5,76.92,0,20.43,8.41,35.26,28.84,35.26,21.23,0,31.65-21.64,33.66-29.25Z"/></svg>